<svg xmlns="http://www.w3.org/2000/svg" width="42" height="42" viewBox="0 0 42 42" fill="none">
  <path fill-rule="evenodd" clip-rule="evenodd" d="M5.25 8.75L8.75 5.25L36.75 33.25L33.25 36.75L5.25 8.75ZM22.75 8.75L24.5 5.25L26.25 8.75L29.75 10.5L26.25 12.25L24.5 15.75L22.75 12.25L19.25 10.5L22.75 8.75ZM8.75 26.25L10.5 22.75L12.25 26.25L15.75 28L12.25 29.75L10.5 33.25L8.75 29.75L5.25 28L8.75 26.25ZM7 15.75L8.75 17.5L7 19.25L5.25 17.5L7 15.75ZM31.5 17.5L33.25 19.25L31.5 21L29.75 19.25L31.5 17.5Z" fill="CurrentColor"/>
</svg>