<svg xmlns="http://www.w3.org/2000/svg" width="64" height="64" viewBox="0 0 64 64" fill="none">
  <path fill-rule="evenodd" clip-rule="evenodd" d="M12 24C12 22.9391 12.4214 21.9217 13.1716 21.1716C13.9217 20.4214 14.9391 20 16 20H48C49.0609 20 50.0783 20.4214 50.8284 21.1716C51.5786 21.9217 52 22.9391 52 24V40C52 41.0609 51.5786 42.0783 50.8284 42.8284C50.0783 43.5786 49.0609 44 48 44H16C14.9391 44 13.9217 43.5786 13.1716 42.8284C12.4214 42.0783 12 41.0609 12 40V24ZM42 36V40H48V36H42ZM36 36V40H40V36H36ZM22 36V40H34V36H22ZM16 36V40H20V36H16ZM44 30V34H48V30H44ZM38 30V34H42V30H38ZM32 30V34H36V30H32ZM26 30V34H30V30H26ZM16 30V34H24V30H16ZM40 24V28H48V24H40ZM34 24V28H38V24H34ZM28 24V28H32V24H28ZM22 24V28H26V24H22ZM16 24V28H20V24H16Z" fill="CurrentColor"/>
</svg>