<svg xmlns="http://www.w3.org/2000/svg" width="64" height="64" viewBox="0 0 64 64" fill="none">
  <path fill-rule="evenodd" clip-rule="evenodd" d="M52.7207 38.124C52.7203 38.2026 52.7147 38.2812 52.7039 38.3591L52.6913 38.4368L52.6577 38.588C52.6514 38.6195 52.6409 38.6468 52.6304 38.6762L52.5842 38.8085L52.5422 38.8967C52.5254 38.9387 52.5044 38.9765 52.4834 39.0164L52.4309 39.1004C52.3662 39.2031 52.2901 39.2982 52.2041 39.3839L52.1306 39.4553C52.0974 39.4846 52.0631 39.5126 52.0277 39.5393L51.9479 39.6023C51.9374 39.6086 51.9269 39.6191 51.9164 39.6233L32.7224 52.422C32.426 52.6202 32.0773 52.7261 31.7207 52.7261C31.3641 52.7261 31.0154 52.6202 30.719 52.422L11.525 39.6254L11.4956 39.6044C11.4306 39.5591 11.3688 39.5092 11.3108 39.4553C11.2856 39.4343 11.2625 39.4091 11.2394 39.3839C11.2079 39.3524 11.1764 39.3209 11.1491 39.2873C11.098 39.228 11.0517 39.1648 11.0105 39.0983C10.9692 39.0332 10.9313 38.9659 10.8971 38.8967L10.8572 38.8085C10.8401 38.765 10.8247 38.7209 10.811 38.6762C10.8005 38.6468 10.79 38.6195 10.7837 38.588C10.769 38.5397 10.7627 38.4872 10.7522 38.4368L10.7375 38.3591C10.7267 38.2812 10.7211 38.2026 10.7207 38.124V25.3273C10.7207 25.2475 10.727 25.1698 10.7375 25.0922L10.7522 25.0145C10.7606 24.9641 10.769 24.9116 10.7837 24.8633C10.8397 24.6374 10.9435 24.4261 11.0882 24.2438C11.1078 24.2167 11.1282 24.1901 11.1491 24.164L11.2394 24.0674L11.3108 23.996C11.369 23.9429 11.4308 23.8938 11.4956 23.849C11.5061 23.8427 11.5145 23.8322 11.525 23.828L30.719 11.0293C31.0156 10.8316 31.3642 10.7261 31.7207 10.7261C32.0772 10.7261 32.4258 10.8316 32.7224 11.0293L51.9164 23.8259C51.9269 23.8322 51.9374 23.8427 51.9479 23.8469L52.0277 23.9099C52.0638 23.9373 52.0988 23.966 52.1327 23.996L52.2041 24.0674C52.2907 24.1533 52.3669 24.2492 52.4309 24.353L52.4834 24.437L52.5443 24.5546L52.5842 24.6428L52.6304 24.7751C52.6409 24.8045 52.6514 24.8318 52.6577 24.8633C52.6724 24.9116 52.6808 24.9641 52.6913 25.0145L52.7039 25.0922C52.7148 25.1701 52.7204 25.2487 52.7207 25.3273V38.124ZM14.3306 28.706V34.7453L18.8456 31.7256L14.3306 28.706ZM29.9168 24.3215V15.9031L15.7754 25.3315L22.0922 29.5544L29.9168 24.3215ZM47.666 25.3294L33.5267 15.9031V24.3215L41.3513 29.5544L47.666 25.3294ZM15.7754 38.1219L29.9168 47.5482V39.1298L22.0922 33.8969L15.7754 38.1219ZM33.5267 39.1298V47.5482L47.666 38.1198L41.3513 33.899L33.5267 39.1298ZM31.7207 27.4545L25.3367 31.7256L31.7207 35.9947L38.1047 31.7256L31.7207 27.4566V27.4545ZM49.1108 34.7453V28.706L44.5958 31.7256L49.1108 34.7453Z" fill="CurrentColor"/>
</svg>