<svg width="205" height="205" viewBox="0 0 205 205" fill="none" xmlns="http://www.w3.org/2000/svg">
<g clip-path="url(#clip0_1293_3830)">
<rect width="205" height="205" fill="#FFD700"/>
<mask id="mask0_1293_3830" style="mask-type:luminance" maskUnits="userSpaceOnUse" x="0" y="0" width="205" height="205">
<path d="M0 0H204.75V6.38542H0V0ZM198.229 6.38542H204.75V198.224H198.229V6.38542ZM0 6.38542H6.38542V198.224H0V6.38542ZM0 198.224H204.75V204.745H0V198.224Z" fill="white"/>
</mask>
<g mask="url(#mask0_1293_3830)">
<path d="M0 0H204.75V204.745H0V0Z" fill="#101010"/>
</g>
<path d="M38.7363 72.1038H98.4238V66.6091L93.0697 38.9424H38.7363V72.1038ZM44.2311 66.6091V44.4372H88.4759L92.929 66.6091H44.2311Z" fill="#101010"/>
<path d="M110.109 72.1038H166.005V38.9424H110.109V72.1038ZM115.604 66.6091V44.4372H160.51V66.6091H115.604Z" fill="#101010"/>
<path d="M43.5664 116.755H49.0612V90.0365L74.2643 105.052L99.4622 90.0365V116.755H104.962V83.5938H99.4622L74.2643 98.5625L49.0612 83.5938H43.5664V116.755Z" fill="#101010"/>
<path d="M116.645 116.755H161.176V111.26H141.655V89.0885H161.176V83.5938H116.645V89.0885H136.16V111.26H116.645V116.755Z" fill="#101010"/>
<path d="M40.6406 161.406H46.1354V134.687L91.0417 161.406H96.5365V128.244H91.0417V154.963L46.1354 128.244H40.6406V161.406Z" fill="#101010"/>
<path d="M108.227 161.406H164.122V128.244H108.227V161.406ZM113.721 155.911V133.739H158.628V155.911H113.721Z" fill="#101010"/>
</g>
<defs>
<clipPath id="clip0_1293_3830">
<rect width="205" height="205" fill="white"/>
</clipPath>
</defs>
</svg>
