<svg width="16" height="15" viewBox="0 0 16 15" fill="none" xmlns="http://www.w3.org/2000/svg">
<path d="M15.9928 0.671542C16.008 0.572445 15.9991 0.470764 15.9668 0.376561C15.9345 0.282357 15.8801 0.198897 15.8089 0.134437C15.7377 0.0699769 15.6521 0.026752 15.5607 0.00903924C15.4693 -0.00867349 15.3752 -0.000260145 15.2877 0.0334467L0.354203 5.80285C0.255767 5.84082 0.169813 5.90924 0.107018 5.9996C0.0442224 6.08997 0.00735313 6.1983 0.000989812 6.31114C-0.0053735 6.42398 0.0190496 6.53636 0.0712252 6.63431C0.123401 6.73226 0.20103 6.81148 0.294468 6.86211L4.56118 9.16987C4.64527 9.2154 4.73899 9.23607 4.83284 9.22979C4.92669 9.2235 5.01733 9.19049 5.09559 9.1341L8.63696 6.57941L6.51747 9.44796C6.47135 9.51039 6.43772 9.58251 6.41872 9.65975C6.39972 9.73698 6.39576 9.81765 6.40709 9.89662C6.41842 9.9756 6.4448 10.0512 6.48455 10.1185C6.5243 10.1859 6.57656 10.2436 6.63801 10.288L13.0381 14.9035C13.1122 14.9568 13.1975 14.9892 13.2861 14.9977C13.3747 15.0063 13.464 14.9907 13.5456 14.9524C13.6273 14.914 13.6987 14.8542 13.7536 14.7784C13.8084 14.7025 13.8448 14.6131 13.8594 14.5181L15.9928 0.671542Z" fill="CurrentColor"/>
</svg>
