<svg width="127" height="19" viewBox="0 0 127 19" fill="none" xmlns="http://www.w3.org/2000/svg">
<path d="M9.75617 0.749999C11.8568 0.749999 13.6892 1.11033 15.2532 1.831C16.8325 2.53633 18.0592 3.533 18.9332 4.821C19.8072 6.109 20.2442 7.627 20.2442 9.375C20.2442 11.1077 19.8072 12.6257 18.9332 13.929C18.0592 15.217 16.8325 16.2213 15.2532 16.942C13.6892 17.6473 11.8568 18 9.75617 18H0.602168V0.749999H9.75617ZM6.49017 15.355L3.82217 12.71H10.2162C11.0595 12.71 11.7802 12.5797 12.3782 12.319C12.9915 12.043 13.4592 11.6597 13.7812 11.169C14.1032 10.663 14.2642 10.065 14.2642 9.375C14.2642 8.66967 14.1032 8.07167 13.7812 7.581C13.4592 7.09033 12.9915 6.71467 12.3782 6.454C11.7802 6.178 11.0595 6.04 10.2162 6.04H3.82217L6.49017 3.395V15.355ZM32.2108 18.414C30.1102 18.414 28.2701 18.0383 26.6908 17.287C25.1268 16.5357 23.9078 15.4853 23.0338 14.136C22.1598 12.7713 21.7228 11.1843 21.7228 9.375C21.7228 7.56567 22.1598 5.98633 23.0338 4.637C23.9078 3.27233 25.1268 2.21433 26.6908 1.463C28.2701 0.711666 30.1102 0.336 32.2108 0.336C34.3115 0.336 36.1438 0.711666 37.7078 1.463C39.2872 2.21433 40.5138 3.27233 41.3878 4.637C42.2618 5.98633 42.6988 7.56567 42.6988 9.375C42.6988 11.1843 42.2618 12.7713 41.3878 14.136C40.5138 15.4853 39.2872 16.5357 37.7078 17.287C36.1438 18.0383 34.3115 18.414 32.2108 18.414ZM32.2108 13.124C33.1462 13.124 33.9512 12.9783 34.6258 12.687C35.3005 12.3803 35.8142 11.951 36.1668 11.399C36.5348 10.8317 36.7188 10.157 36.7188 9.375C36.7188 8.593 36.5348 7.926 36.1668 7.374C35.8142 6.80667 35.3005 6.37733 34.6258 6.086C33.9512 5.77933 33.1462 5.626 32.2108 5.626C31.2755 5.626 30.4705 5.77933 29.7958 6.086C29.1212 6.37733 28.5998 6.80667 28.2318 7.374C27.8792 7.926 27.7028 8.593 27.7028 9.375C27.7028 10.157 27.8792 10.8317 28.2318 11.399C28.5998 11.951 29.1212 12.3803 29.7958 12.687C30.4705 12.9783 31.2755 13.124 32.2108 13.124ZM71.3703 0.749999V18H65.7353V2.981L66.8163 3.119L61.0203 18H55.1553L49.3593 3.188L50.4403 3.027V18H44.8053V0.749999H53.9823L59.1343 14.803H57.0873L62.1933 0.749999H71.3703ZM74.1393 0.749999H80.0733V18H74.1393V0.749999ZM98.8167 13.676L97.2067 14.067V0.749999H102.957V18H95.5277L86.9717 4.706L88.5817 4.315V18H82.8317V0.749999H90.4907L98.8167 13.676ZM115.563 18.414C113.463 18.414 111.623 18.0383 110.043 17.287C108.479 16.5357 107.26 15.4853 106.386 14.136C105.512 12.7713 105.075 11.1843 105.075 9.375C105.075 7.56567 105.512 5.98633 106.386 4.637C107.26 3.27233 108.479 2.21433 110.043 1.463C111.623 0.711666 113.463 0.336 115.563 0.336C117.664 0.336 119.496 0.711666 121.06 1.463C122.64 2.21433 123.866 3.27233 124.74 4.637C125.614 5.98633 126.051 7.56567 126.051 9.375C126.051 11.1843 125.614 12.7713 124.74 14.136C123.866 15.4853 122.64 16.5357 121.06 17.287C119.496 18.0383 117.664 18.414 115.563 18.414ZM115.563 13.124C116.499 13.124 117.304 12.9783 117.978 12.687C118.653 12.3803 119.167 11.951 119.519 11.399C119.887 10.8317 120.071 10.157 120.071 9.375C120.071 8.593 119.887 7.926 119.519 7.374C119.167 6.80667 118.653 6.37733 117.978 6.086C117.304 5.77933 116.499 5.626 115.563 5.626C114.628 5.626 113.823 5.77933 113.148 6.086C112.474 6.37733 111.952 6.80667 111.584 7.374C111.232 7.926 111.055 8.593 111.055 9.375C111.055 10.157 111.232 10.8317 111.584 11.399C111.952 11.951 112.474 12.3803 113.148 12.687C113.823 12.9783 114.628 13.124 115.563 13.124Z" fill="#CC0000"/>
</svg>
