<svg xmlns="http://www.w3.org/2000/svg" width="33" height="32" viewBox="0 0 33 32" fill="none">
    <path d="M16.1229 22.667C16.5007 22.667 16.8173 22.5392 17.0729 22.2837C17.3284 22.0281 17.4562 21.7114 17.4562 21.3337C17.4562 20.9559 17.3284 20.6392 17.0729 20.3837C16.8173 20.1281 16.5007 20.0003 16.1229 20.0003C15.7451 20.0003 15.4284 20.1281 15.1729 20.3837C14.9173 20.6392 14.7895 20.9559 14.7895 21.3337C14.7895 21.7114 14.9173 22.0281 15.1729 22.2837C15.4284 22.5392 15.7451 22.667 16.1229 22.667ZM14.7895 17.3337H17.4562V9.33366H14.7895V17.3337ZM16.1229 29.3337C14.2784 29.3337 12.5451 28.9837 10.9229 28.2837C9.30066 27.5837 7.88955 26.6337 6.68955 25.4337C5.48955 24.2337 4.53955 22.8225 3.83955 21.2003C3.13955 19.5781 2.78955 17.8448 2.78955 16.0003C2.78955 14.1559 3.13955 12.4225 3.83955 10.8003C4.53955 9.1781 5.48955 7.76699 6.68955 6.56699C7.88955 5.36699 9.30066 4.41699 10.9229 3.71699C12.5451 3.01699 14.2784 2.66699 16.1229 2.66699C17.9673 2.66699 19.7007 3.01699 21.3229 3.71699C22.9451 4.41699 24.3562 5.36699 25.5562 6.56699C26.7562 7.76699 27.7062 9.1781 28.4062 10.8003C29.1062 12.4225 29.4562 14.1559 29.4562 16.0003C29.4562 17.8448 29.1062 19.5781 28.4062 21.2003C27.7062 22.8225 26.7562 24.2337 25.5562 25.4337C24.3562 26.6337 22.9451 27.5837 21.3229 28.2837C19.7007 28.9837 17.9673 29.3337 16.1229 29.3337ZM16.1229 26.667C19.1007 26.667 21.6229 25.6337 23.6896 23.567C25.7562 21.5003 26.7895 18.9781 26.7895 16.0003C26.7895 13.0225 25.7562 10.5003 23.6896 8.43366C21.6229 6.36699 19.1007 5.33366 16.1229 5.33366C13.1451 5.33366 10.6229 6.36699 8.55622 8.43366C6.48955 10.5003 5.45622 13.0225 5.45622 16.0003C5.45622 18.9781 6.48955 21.5003 8.55622 23.567C10.6229 25.6337 13.1451 26.667 16.1229 26.667Z" fill="#C71F1F"/>
</svg>