<svg xmlns="http://www.w3.org/2000/svg" xmlns:xlink="http://www.w3.org/1999/xlink"><defs><symbol fill="none" viewBox="0 0 42 42" id="icon-apps"><path fill-rule="evenodd" clip-rule="evenodd" d="M5.25 8.75l3.5-3.5 28 28-3.5 3.5-28-28zm17.5 0l1.75-3.5 1.75 3.5 3.5 1.75-3.5 1.75-1.75 3.5-1.75-3.5-3.5-1.75 3.5-1.75zm-14 17.5l1.75-3.5 1.75 3.5 3.5 1.75-3.5 1.75-1.75 3.5-1.75-3.5L5.25 28l3.5-1.75zM7 15.75l1.75 1.75L7 19.25 5.25 17.5 7 15.75zm24.5 1.75l1.75 1.75L31.5 21l-1.75-1.75 1.75-1.75z" fill="CurrentColor" /></symbol><symbol fill="none" viewBox="0 0 24 24" id="icon-arrow"><path d="M22 15.975l-1.775 1.775L12 9.525 3.775 17.75 2 15.975l10-10 10 10z" fill="CurrentColor" /></symbol><symbol fill="none" viewBox="0 0 64 64" id="icon-crypto"><path fill-rule="evenodd" clip-rule="evenodd" d="M12 24a4 4 0 014-4h32a4 4 0 014 4v16a4 4 0 01-4 4H16a4 4 0 01-4-4V24zm30 12v4h6v-4h-6zm-6 0v4h4v-4h-4zm-14 0v4h12v-4H22zm-6 0v4h4v-4h-4zm28-6v4h4v-4h-4zm-6 0v4h4v-4h-4zm-6 0v4h4v-4h-4zm-6 0v4h4v-4h-4zm-10 0v4h8v-4h-8zm24-6v4h8v-4h-8zm-6 0v4h4v-4h-4zm-6 0v4h4v-4h-4zm-6 0v4h4v-4h-4zm-6 0v4h4v-4h-4z" fill="CurrentColor" /></symbol><symbol fill="none" viewBox="0 0 24 24" id="icon-phone"><path fill-rule="evenodd" clip-rule="evenodd" d="M4.024 9L4 8.931C3.46 7.384 3 5.27 3 4c0-.55.45-1 1-1h3a2 2 0 012 2v2a2 2 0 01-2 2h-.837A16.054 16.054 0 0015 17.837V17a2 2 0 012-2h2a2 2 0 012 2v3c0 .45-.55 1-1 1-1.725 0-3.44-.456-5-1-5.114-1.832-9.168-5.886-10.976-11z" fill="CurrentColor" /></symbol><symbol fill="none" viewBox="0 0 64 64" id="icon-sites"><path fill-rule="evenodd" clip-rule="evenodd" d="M52.72 38.124c0 .079-.005.157-.016.235l-.013.078-.033.151c-.007.032-.017.059-.028.088l-.046.133-.042.088c-.017.042-.038.08-.059.12l-.052.083c-.065.103-.14.198-.227.284l-.073.071c-.034.03-.068.058-.103.084l-.08.063c-.01.007-.021.017-.032.021L32.722 52.422a1.802 1.802 0 01-2.003 0L11.525 39.625l-.03-.02a1.697 1.697 0 01-.256-.221 1.498 1.498 0 01-.229-.286 2.177 2.177 0 01-.113-.201l-.04-.088a1.816 1.816 0 01-.046-.133c-.01-.03-.021-.056-.027-.088-.015-.048-.021-.1-.032-.151l-.014-.078a1.779 1.779 0 01-.017-.235V25.327c0-.08.006-.157.017-.235l.014-.077c.009-.05.017-.103.032-.152.056-.226.16-.437.304-.62l.061-.079.09-.097.072-.071c.058-.053.12-.102.185-.147.01-.006.018-.017.029-.021l19.194-12.799a1.806 1.806 0 012.003 0l19.194 12.797c.01.006.021.017.032.02l.08.064c.036.027.07.056.105.086l.071.071c.087.086.163.182.227.286l.052.084.061.118.04.088.046.132c.01.03.021.057.028.088.014.049.023.101.033.152l.013.077c.01.078.016.157.017.235v12.797zm-38.39-9.418v6.04l4.516-3.02-4.515-3.02zm15.587-4.384v-8.419l-14.142 9.428 6.317 4.223 7.825-5.232zm17.749 1.007l-14.14-9.426v8.418l7.825 5.233 6.315-4.225zm-31.89 12.793l14.14 9.426V39.13l-7.824-5.233-6.317 4.225zm17.75 1.008v8.418l14.14-9.428-6.315-4.221-7.824 5.23zm-1.805-11.676l-6.384 4.272 6.384 4.269 6.384-4.27-6.384-4.268v-.003zm17.39 7.291v-6.039l-4.515 3.02 4.515 3.02z" fill="CurrentColor" /></symbol><symbol fill="none" viewBox="0 0 16 15" id="icon-telegram"><path d="M15.993.672c.015-.1.006-.201-.026-.295a.58.58 0 00-.158-.243.495.495 0 00-.521-.101L.354 5.803A.538.538 0 00.107 6a.615.615 0 00-.036.635c.052.097.13.176.223.227L4.561 9.17a.5.5 0 00.535-.036L8.637 6.58l-2.12 2.869a.596.596 0 00-.11.449.606.606 0 00.078.221c.04.068.092.126.153.17l6.4 4.615a.508.508 0 00.508.05.543.543 0 00.208-.175.6.6 0 00.105-.26L15.993.672z" fill="CurrentColor" /></symbol></defs></svg>