<svg xmlns="http://www.w3.org/2000/svg" xmlns:xlink="http://www.w3.org/1999/xlink"><defs><symbol fill="none" viewBox="0 0 24 24" id="icon-phone"><path fill-rule="evenodd" clip-rule="evenodd" d="M4.024 9L4 8.931C3.46 7.384 3 5.27 3 4c0-.55.45-1 1-1h3a2 2 0 012 2v2a2 2 0 01-2 2h-.837A16.054 16.054 0 0015 17.837V17a2 2 0 012-2h2a2 2 0 012 2v3c0 .45-.55 1-1 1-1.725 0-3.44-.456-5-1-5.114-1.832-9.168-5.886-10.976-11z" fill="CurrentColor" /></symbol><symbol fill="none" viewBox="0 0 16 15" id="icon-telegram"><path d="M15.993.672c.015-.1.006-.201-.026-.295a.58.58 0 00-.158-.243.495.495 0 00-.521-.101L.354 5.803A.538.538 0 00.107 6a.615.615 0 00-.036.635c.052.097.13.176.223.227L4.561 9.17a.5.5 0 00.535-.036L8.637 6.58l-2.12 2.869a.596.596 0 00-.11.449.606.606 0 00.078.221c.04.068.092.126.153.17l6.4 4.615a.508.508 0 00.508.05.543.543 0 00.208-.175.6.6 0 00.105-.26L15.993.672z" fill="CurrentColor" /></symbol></defs></svg>